%TF.GenerationSoftware,KiCad,Pcbnew,10.0.0*%
%TF.CreationDate,2026-05-10T20:02:35-04:00*%
%TF.ProjectId,bioelect,62696f65-6c65-4637-942e-6b696361645f,rev?*%
%TF.SameCoordinates,Original*%
%TF.FileFunction,Soldermask,Top*%
%TF.FilePolarity,Negative*%
%FSLAX46Y46*%
G04 Gerber Fmt 4.6, Leading zero omitted, Abs format (unit mm)*
G04 Created by KiCad (PCBNEW 10.0.0) date 2026-05-10 20:02:35*
%MOMM*%
%LPD*%
G01*
G04 APERTURE LIST*
%ADD10C,1.700000*%
%ADD11R,1.700000X1.700000*%
G04 APERTURE END LIST*
D10*
%TO.C,ECG_Sensor_1*%
X63500000Y-43180000D03*
X63500000Y-40640000D03*
X63500000Y-38100000D03*
X63500000Y-35560000D03*
X63500000Y-33020000D03*
D11*
X63500000Y-30480000D03*
%TD*%
D10*
%TO.C,ECG_Sensor_2*%
X73660000Y-43180000D03*
X73660000Y-40640000D03*
X73660000Y-38100000D03*
X73660000Y-35560000D03*
X73660000Y-33020000D03*
D11*
X73660000Y-30480000D03*
%TD*%
%TO.C,STM32 Board*%
X76200000Y-58420000D03*
D10*
X76200000Y-60960000D03*
X76200000Y-63500000D03*
X76200000Y-66040000D03*
X76200000Y-68580000D03*
X76200000Y-71120000D03*
X76200000Y-73660000D03*
X76200000Y-76200000D03*
X76200000Y-78740000D03*
X76200000Y-81280000D03*
X76200000Y-83820000D03*
X76200000Y-86360000D03*
X76200000Y-88900000D03*
X76200000Y-91440000D03*
X76200000Y-93980000D03*
%TD*%
%TO.C,J3*%
X60960000Y-93980000D03*
X60960000Y-91440000D03*
X60960000Y-88900000D03*
X60960000Y-86360000D03*
X60960000Y-83820000D03*
X60960000Y-81280000D03*
X60960000Y-78740000D03*
X60960000Y-76200000D03*
X60960000Y-73660000D03*
X60960000Y-71120000D03*
X60960000Y-68580000D03*
X60960000Y-66040000D03*
X60960000Y-63500000D03*
X60960000Y-60960000D03*
D11*
X60960000Y-58420000D03*
%TD*%
M02*
