%TF.GenerationSoftware,KiCad,Pcbnew,10.0.0*%
%TF.CreationDate,2026-05-10T20:02:34-04:00*%
%TF.ProjectId,bioelect,62696f65-6c65-4637-942e-6b696361645f,rev?*%
%TF.SameCoordinates,Original*%
%TF.FileFunction,Legend,Top*%
%TF.FilePolarity,Positive*%
%FSLAX46Y46*%
G04 Gerber Fmt 4.6, Leading zero omitted, Abs format (unit mm)*
G04 Created by KiCad (PCBNEW 10.0.0) date 2026-05-10 20:02:34*
%MOMM*%
%LPD*%
G01*
G04 APERTURE LIST*
%ADD10C,0.150000*%
%ADD11C,0.120000*%
G04 APERTURE END LIST*
D10*
X55983809Y-27641009D02*
X56317142Y-27641009D01*
X56459999Y-28164819D02*
X55983809Y-28164819D01*
X55983809Y-28164819D02*
X55983809Y-27164819D01*
X55983809Y-27164819D02*
X56459999Y-27164819D01*
X57459999Y-28069580D02*
X57412380Y-28117200D01*
X57412380Y-28117200D02*
X57269523Y-28164819D01*
X57269523Y-28164819D02*
X57174285Y-28164819D01*
X57174285Y-28164819D02*
X57031428Y-28117200D01*
X57031428Y-28117200D02*
X56936190Y-28021961D01*
X56936190Y-28021961D02*
X56888571Y-27926723D01*
X56888571Y-27926723D02*
X56840952Y-27736247D01*
X56840952Y-27736247D02*
X56840952Y-27593390D01*
X56840952Y-27593390D02*
X56888571Y-27402914D01*
X56888571Y-27402914D02*
X56936190Y-27307676D01*
X56936190Y-27307676D02*
X57031428Y-27212438D01*
X57031428Y-27212438D02*
X57174285Y-27164819D01*
X57174285Y-27164819D02*
X57269523Y-27164819D01*
X57269523Y-27164819D02*
X57412380Y-27212438D01*
X57412380Y-27212438D02*
X57459999Y-27260057D01*
X58412380Y-27212438D02*
X58317142Y-27164819D01*
X58317142Y-27164819D02*
X58174285Y-27164819D01*
X58174285Y-27164819D02*
X58031428Y-27212438D01*
X58031428Y-27212438D02*
X57936190Y-27307676D01*
X57936190Y-27307676D02*
X57888571Y-27402914D01*
X57888571Y-27402914D02*
X57840952Y-27593390D01*
X57840952Y-27593390D02*
X57840952Y-27736247D01*
X57840952Y-27736247D02*
X57888571Y-27926723D01*
X57888571Y-27926723D02*
X57936190Y-28021961D01*
X57936190Y-28021961D02*
X58031428Y-28117200D01*
X58031428Y-28117200D02*
X58174285Y-28164819D01*
X58174285Y-28164819D02*
X58269523Y-28164819D01*
X58269523Y-28164819D02*
X58412380Y-28117200D01*
X58412380Y-28117200D02*
X58459999Y-28069580D01*
X58459999Y-28069580D02*
X58459999Y-27736247D01*
X58459999Y-27736247D02*
X58269523Y-27736247D01*
X58650476Y-28260057D02*
X59412380Y-28260057D01*
X59602857Y-28117200D02*
X59745714Y-28164819D01*
X59745714Y-28164819D02*
X59983809Y-28164819D01*
X59983809Y-28164819D02*
X60079047Y-28117200D01*
X60079047Y-28117200D02*
X60126666Y-28069580D01*
X60126666Y-28069580D02*
X60174285Y-27974342D01*
X60174285Y-27974342D02*
X60174285Y-27879104D01*
X60174285Y-27879104D02*
X60126666Y-27783866D01*
X60126666Y-27783866D02*
X60079047Y-27736247D01*
X60079047Y-27736247D02*
X59983809Y-27688628D01*
X59983809Y-27688628D02*
X59793333Y-27641009D01*
X59793333Y-27641009D02*
X59698095Y-27593390D01*
X59698095Y-27593390D02*
X59650476Y-27545771D01*
X59650476Y-27545771D02*
X59602857Y-27450533D01*
X59602857Y-27450533D02*
X59602857Y-27355295D01*
X59602857Y-27355295D02*
X59650476Y-27260057D01*
X59650476Y-27260057D02*
X59698095Y-27212438D01*
X59698095Y-27212438D02*
X59793333Y-27164819D01*
X59793333Y-27164819D02*
X60031428Y-27164819D01*
X60031428Y-27164819D02*
X60174285Y-27212438D01*
X60983809Y-28117200D02*
X60888571Y-28164819D01*
X60888571Y-28164819D02*
X60698095Y-28164819D01*
X60698095Y-28164819D02*
X60602857Y-28117200D01*
X60602857Y-28117200D02*
X60555238Y-28021961D01*
X60555238Y-28021961D02*
X60555238Y-27641009D01*
X60555238Y-27641009D02*
X60602857Y-27545771D01*
X60602857Y-27545771D02*
X60698095Y-27498152D01*
X60698095Y-27498152D02*
X60888571Y-27498152D01*
X60888571Y-27498152D02*
X60983809Y-27545771D01*
X60983809Y-27545771D02*
X61031428Y-27641009D01*
X61031428Y-27641009D02*
X61031428Y-27736247D01*
X61031428Y-27736247D02*
X60555238Y-27831485D01*
X61460000Y-27498152D02*
X61460000Y-28164819D01*
X61460000Y-27593390D02*
X61507619Y-27545771D01*
X61507619Y-27545771D02*
X61602857Y-27498152D01*
X61602857Y-27498152D02*
X61745714Y-27498152D01*
X61745714Y-27498152D02*
X61840952Y-27545771D01*
X61840952Y-27545771D02*
X61888571Y-27641009D01*
X61888571Y-27641009D02*
X61888571Y-28164819D01*
X62317143Y-28117200D02*
X62412381Y-28164819D01*
X62412381Y-28164819D02*
X62602857Y-28164819D01*
X62602857Y-28164819D02*
X62698095Y-28117200D01*
X62698095Y-28117200D02*
X62745714Y-28021961D01*
X62745714Y-28021961D02*
X62745714Y-27974342D01*
X62745714Y-27974342D02*
X62698095Y-27879104D01*
X62698095Y-27879104D02*
X62602857Y-27831485D01*
X62602857Y-27831485D02*
X62460000Y-27831485D01*
X62460000Y-27831485D02*
X62364762Y-27783866D01*
X62364762Y-27783866D02*
X62317143Y-27688628D01*
X62317143Y-27688628D02*
X62317143Y-27641009D01*
X62317143Y-27641009D02*
X62364762Y-27545771D01*
X62364762Y-27545771D02*
X62460000Y-27498152D01*
X62460000Y-27498152D02*
X62602857Y-27498152D01*
X62602857Y-27498152D02*
X62698095Y-27545771D01*
X63317143Y-28164819D02*
X63221905Y-28117200D01*
X63221905Y-28117200D02*
X63174286Y-28069580D01*
X63174286Y-28069580D02*
X63126667Y-27974342D01*
X63126667Y-27974342D02*
X63126667Y-27688628D01*
X63126667Y-27688628D02*
X63174286Y-27593390D01*
X63174286Y-27593390D02*
X63221905Y-27545771D01*
X63221905Y-27545771D02*
X63317143Y-27498152D01*
X63317143Y-27498152D02*
X63460000Y-27498152D01*
X63460000Y-27498152D02*
X63555238Y-27545771D01*
X63555238Y-27545771D02*
X63602857Y-27593390D01*
X63602857Y-27593390D02*
X63650476Y-27688628D01*
X63650476Y-27688628D02*
X63650476Y-27974342D01*
X63650476Y-27974342D02*
X63602857Y-28069580D01*
X63602857Y-28069580D02*
X63555238Y-28117200D01*
X63555238Y-28117200D02*
X63460000Y-28164819D01*
X63460000Y-28164819D02*
X63317143Y-28164819D01*
X64079048Y-28164819D02*
X64079048Y-27498152D01*
X64079048Y-27688628D02*
X64126667Y-27593390D01*
X64126667Y-27593390D02*
X64174286Y-27545771D01*
X64174286Y-27545771D02*
X64269524Y-27498152D01*
X64269524Y-27498152D02*
X64364762Y-27498152D01*
X64460001Y-28260057D02*
X65221905Y-28260057D01*
X65983810Y-28164819D02*
X65412382Y-28164819D01*
X65698096Y-28164819D02*
X65698096Y-27164819D01*
X65698096Y-27164819D02*
X65602858Y-27307676D01*
X65602858Y-27307676D02*
X65507620Y-27402914D01*
X65507620Y-27402914D02*
X65412382Y-27450533D01*
X71223809Y-27641009D02*
X71557142Y-27641009D01*
X71699999Y-28164819D02*
X71223809Y-28164819D01*
X71223809Y-28164819D02*
X71223809Y-27164819D01*
X71223809Y-27164819D02*
X71699999Y-27164819D01*
X72699999Y-28069580D02*
X72652380Y-28117200D01*
X72652380Y-28117200D02*
X72509523Y-28164819D01*
X72509523Y-28164819D02*
X72414285Y-28164819D01*
X72414285Y-28164819D02*
X72271428Y-28117200D01*
X72271428Y-28117200D02*
X72176190Y-28021961D01*
X72176190Y-28021961D02*
X72128571Y-27926723D01*
X72128571Y-27926723D02*
X72080952Y-27736247D01*
X72080952Y-27736247D02*
X72080952Y-27593390D01*
X72080952Y-27593390D02*
X72128571Y-27402914D01*
X72128571Y-27402914D02*
X72176190Y-27307676D01*
X72176190Y-27307676D02*
X72271428Y-27212438D01*
X72271428Y-27212438D02*
X72414285Y-27164819D01*
X72414285Y-27164819D02*
X72509523Y-27164819D01*
X72509523Y-27164819D02*
X72652380Y-27212438D01*
X72652380Y-27212438D02*
X72699999Y-27260057D01*
X73652380Y-27212438D02*
X73557142Y-27164819D01*
X73557142Y-27164819D02*
X73414285Y-27164819D01*
X73414285Y-27164819D02*
X73271428Y-27212438D01*
X73271428Y-27212438D02*
X73176190Y-27307676D01*
X73176190Y-27307676D02*
X73128571Y-27402914D01*
X73128571Y-27402914D02*
X73080952Y-27593390D01*
X73080952Y-27593390D02*
X73080952Y-27736247D01*
X73080952Y-27736247D02*
X73128571Y-27926723D01*
X73128571Y-27926723D02*
X73176190Y-28021961D01*
X73176190Y-28021961D02*
X73271428Y-28117200D01*
X73271428Y-28117200D02*
X73414285Y-28164819D01*
X73414285Y-28164819D02*
X73509523Y-28164819D01*
X73509523Y-28164819D02*
X73652380Y-28117200D01*
X73652380Y-28117200D02*
X73699999Y-28069580D01*
X73699999Y-28069580D02*
X73699999Y-27736247D01*
X73699999Y-27736247D02*
X73509523Y-27736247D01*
X73890476Y-28260057D02*
X74652380Y-28260057D01*
X74842857Y-28117200D02*
X74985714Y-28164819D01*
X74985714Y-28164819D02*
X75223809Y-28164819D01*
X75223809Y-28164819D02*
X75319047Y-28117200D01*
X75319047Y-28117200D02*
X75366666Y-28069580D01*
X75366666Y-28069580D02*
X75414285Y-27974342D01*
X75414285Y-27974342D02*
X75414285Y-27879104D01*
X75414285Y-27879104D02*
X75366666Y-27783866D01*
X75366666Y-27783866D02*
X75319047Y-27736247D01*
X75319047Y-27736247D02*
X75223809Y-27688628D01*
X75223809Y-27688628D02*
X75033333Y-27641009D01*
X75033333Y-27641009D02*
X74938095Y-27593390D01*
X74938095Y-27593390D02*
X74890476Y-27545771D01*
X74890476Y-27545771D02*
X74842857Y-27450533D01*
X74842857Y-27450533D02*
X74842857Y-27355295D01*
X74842857Y-27355295D02*
X74890476Y-27260057D01*
X74890476Y-27260057D02*
X74938095Y-27212438D01*
X74938095Y-27212438D02*
X75033333Y-27164819D01*
X75033333Y-27164819D02*
X75271428Y-27164819D01*
X75271428Y-27164819D02*
X75414285Y-27212438D01*
X76223809Y-28117200D02*
X76128571Y-28164819D01*
X76128571Y-28164819D02*
X75938095Y-28164819D01*
X75938095Y-28164819D02*
X75842857Y-28117200D01*
X75842857Y-28117200D02*
X75795238Y-28021961D01*
X75795238Y-28021961D02*
X75795238Y-27641009D01*
X75795238Y-27641009D02*
X75842857Y-27545771D01*
X75842857Y-27545771D02*
X75938095Y-27498152D01*
X75938095Y-27498152D02*
X76128571Y-27498152D01*
X76128571Y-27498152D02*
X76223809Y-27545771D01*
X76223809Y-27545771D02*
X76271428Y-27641009D01*
X76271428Y-27641009D02*
X76271428Y-27736247D01*
X76271428Y-27736247D02*
X75795238Y-27831485D01*
X76700000Y-27498152D02*
X76700000Y-28164819D01*
X76700000Y-27593390D02*
X76747619Y-27545771D01*
X76747619Y-27545771D02*
X76842857Y-27498152D01*
X76842857Y-27498152D02*
X76985714Y-27498152D01*
X76985714Y-27498152D02*
X77080952Y-27545771D01*
X77080952Y-27545771D02*
X77128571Y-27641009D01*
X77128571Y-27641009D02*
X77128571Y-28164819D01*
X77557143Y-28117200D02*
X77652381Y-28164819D01*
X77652381Y-28164819D02*
X77842857Y-28164819D01*
X77842857Y-28164819D02*
X77938095Y-28117200D01*
X77938095Y-28117200D02*
X77985714Y-28021961D01*
X77985714Y-28021961D02*
X77985714Y-27974342D01*
X77985714Y-27974342D02*
X77938095Y-27879104D01*
X77938095Y-27879104D02*
X77842857Y-27831485D01*
X77842857Y-27831485D02*
X77700000Y-27831485D01*
X77700000Y-27831485D02*
X77604762Y-27783866D01*
X77604762Y-27783866D02*
X77557143Y-27688628D01*
X77557143Y-27688628D02*
X77557143Y-27641009D01*
X77557143Y-27641009D02*
X77604762Y-27545771D01*
X77604762Y-27545771D02*
X77700000Y-27498152D01*
X77700000Y-27498152D02*
X77842857Y-27498152D01*
X77842857Y-27498152D02*
X77938095Y-27545771D01*
X78557143Y-28164819D02*
X78461905Y-28117200D01*
X78461905Y-28117200D02*
X78414286Y-28069580D01*
X78414286Y-28069580D02*
X78366667Y-27974342D01*
X78366667Y-27974342D02*
X78366667Y-27688628D01*
X78366667Y-27688628D02*
X78414286Y-27593390D01*
X78414286Y-27593390D02*
X78461905Y-27545771D01*
X78461905Y-27545771D02*
X78557143Y-27498152D01*
X78557143Y-27498152D02*
X78700000Y-27498152D01*
X78700000Y-27498152D02*
X78795238Y-27545771D01*
X78795238Y-27545771D02*
X78842857Y-27593390D01*
X78842857Y-27593390D02*
X78890476Y-27688628D01*
X78890476Y-27688628D02*
X78890476Y-27974342D01*
X78890476Y-27974342D02*
X78842857Y-28069580D01*
X78842857Y-28069580D02*
X78795238Y-28117200D01*
X78795238Y-28117200D02*
X78700000Y-28164819D01*
X78700000Y-28164819D02*
X78557143Y-28164819D01*
X79319048Y-28164819D02*
X79319048Y-27498152D01*
X79319048Y-27688628D02*
X79366667Y-27593390D01*
X79366667Y-27593390D02*
X79414286Y-27545771D01*
X79414286Y-27545771D02*
X79509524Y-27498152D01*
X79509524Y-27498152D02*
X79604762Y-27498152D01*
X79700001Y-28260057D02*
X80461905Y-28260057D01*
X80652382Y-27260057D02*
X80700001Y-27212438D01*
X80700001Y-27212438D02*
X80795239Y-27164819D01*
X80795239Y-27164819D02*
X81033334Y-27164819D01*
X81033334Y-27164819D02*
X81128572Y-27212438D01*
X81128572Y-27212438D02*
X81176191Y-27260057D01*
X81176191Y-27260057D02*
X81223810Y-27355295D01*
X81223810Y-27355295D02*
X81223810Y-27450533D01*
X81223810Y-27450533D02*
X81176191Y-27593390D01*
X81176191Y-27593390D02*
X80604763Y-28164819D01*
X80604763Y-28164819D02*
X81223810Y-28164819D01*
X63841904Y-56057200D02*
X63984761Y-56104819D01*
X63984761Y-56104819D02*
X64222856Y-56104819D01*
X64222856Y-56104819D02*
X64318094Y-56057200D01*
X64318094Y-56057200D02*
X64365713Y-56009580D01*
X64365713Y-56009580D02*
X64413332Y-55914342D01*
X64413332Y-55914342D02*
X64413332Y-55819104D01*
X64413332Y-55819104D02*
X64365713Y-55723866D01*
X64365713Y-55723866D02*
X64318094Y-55676247D01*
X64318094Y-55676247D02*
X64222856Y-55628628D01*
X64222856Y-55628628D02*
X64032380Y-55581009D01*
X64032380Y-55581009D02*
X63937142Y-55533390D01*
X63937142Y-55533390D02*
X63889523Y-55485771D01*
X63889523Y-55485771D02*
X63841904Y-55390533D01*
X63841904Y-55390533D02*
X63841904Y-55295295D01*
X63841904Y-55295295D02*
X63889523Y-55200057D01*
X63889523Y-55200057D02*
X63937142Y-55152438D01*
X63937142Y-55152438D02*
X64032380Y-55104819D01*
X64032380Y-55104819D02*
X64270475Y-55104819D01*
X64270475Y-55104819D02*
X64413332Y-55152438D01*
X64699047Y-55104819D02*
X65270475Y-55104819D01*
X64984761Y-56104819D02*
X64984761Y-55104819D01*
X65603809Y-56104819D02*
X65603809Y-55104819D01*
X65603809Y-55104819D02*
X65937142Y-55819104D01*
X65937142Y-55819104D02*
X66270475Y-55104819D01*
X66270475Y-55104819D02*
X66270475Y-56104819D01*
X66651428Y-55104819D02*
X67270475Y-55104819D01*
X67270475Y-55104819D02*
X66937142Y-55485771D01*
X66937142Y-55485771D02*
X67079999Y-55485771D01*
X67079999Y-55485771D02*
X67175237Y-55533390D01*
X67175237Y-55533390D02*
X67222856Y-55581009D01*
X67222856Y-55581009D02*
X67270475Y-55676247D01*
X67270475Y-55676247D02*
X67270475Y-55914342D01*
X67270475Y-55914342D02*
X67222856Y-56009580D01*
X67222856Y-56009580D02*
X67175237Y-56057200D01*
X67175237Y-56057200D02*
X67079999Y-56104819D01*
X67079999Y-56104819D02*
X66794285Y-56104819D01*
X66794285Y-56104819D02*
X66699047Y-56057200D01*
X66699047Y-56057200D02*
X66651428Y-56009580D01*
X67651428Y-55200057D02*
X67699047Y-55152438D01*
X67699047Y-55152438D02*
X67794285Y-55104819D01*
X67794285Y-55104819D02*
X68032380Y-55104819D01*
X68032380Y-55104819D02*
X68127618Y-55152438D01*
X68127618Y-55152438D02*
X68175237Y-55200057D01*
X68175237Y-55200057D02*
X68222856Y-55295295D01*
X68222856Y-55295295D02*
X68222856Y-55390533D01*
X68222856Y-55390533D02*
X68175237Y-55533390D01*
X68175237Y-55533390D02*
X67603809Y-56104819D01*
X67603809Y-56104819D02*
X68222856Y-56104819D01*
X69746666Y-55581009D02*
X69889523Y-55628628D01*
X69889523Y-55628628D02*
X69937142Y-55676247D01*
X69937142Y-55676247D02*
X69984761Y-55771485D01*
X69984761Y-55771485D02*
X69984761Y-55914342D01*
X69984761Y-55914342D02*
X69937142Y-56009580D01*
X69937142Y-56009580D02*
X69889523Y-56057200D01*
X69889523Y-56057200D02*
X69794285Y-56104819D01*
X69794285Y-56104819D02*
X69413333Y-56104819D01*
X69413333Y-56104819D02*
X69413333Y-55104819D01*
X69413333Y-55104819D02*
X69746666Y-55104819D01*
X69746666Y-55104819D02*
X69841904Y-55152438D01*
X69841904Y-55152438D02*
X69889523Y-55200057D01*
X69889523Y-55200057D02*
X69937142Y-55295295D01*
X69937142Y-55295295D02*
X69937142Y-55390533D01*
X69937142Y-55390533D02*
X69889523Y-55485771D01*
X69889523Y-55485771D02*
X69841904Y-55533390D01*
X69841904Y-55533390D02*
X69746666Y-55581009D01*
X69746666Y-55581009D02*
X69413333Y-55581009D01*
X70556190Y-56104819D02*
X70460952Y-56057200D01*
X70460952Y-56057200D02*
X70413333Y-56009580D01*
X70413333Y-56009580D02*
X70365714Y-55914342D01*
X70365714Y-55914342D02*
X70365714Y-55628628D01*
X70365714Y-55628628D02*
X70413333Y-55533390D01*
X70413333Y-55533390D02*
X70460952Y-55485771D01*
X70460952Y-55485771D02*
X70556190Y-55438152D01*
X70556190Y-55438152D02*
X70699047Y-55438152D01*
X70699047Y-55438152D02*
X70794285Y-55485771D01*
X70794285Y-55485771D02*
X70841904Y-55533390D01*
X70841904Y-55533390D02*
X70889523Y-55628628D01*
X70889523Y-55628628D02*
X70889523Y-55914342D01*
X70889523Y-55914342D02*
X70841904Y-56009580D01*
X70841904Y-56009580D02*
X70794285Y-56057200D01*
X70794285Y-56057200D02*
X70699047Y-56104819D01*
X70699047Y-56104819D02*
X70556190Y-56104819D01*
X71746666Y-56104819D02*
X71746666Y-55581009D01*
X71746666Y-55581009D02*
X71699047Y-55485771D01*
X71699047Y-55485771D02*
X71603809Y-55438152D01*
X71603809Y-55438152D02*
X71413333Y-55438152D01*
X71413333Y-55438152D02*
X71318095Y-55485771D01*
X71746666Y-56057200D02*
X71651428Y-56104819D01*
X71651428Y-56104819D02*
X71413333Y-56104819D01*
X71413333Y-56104819D02*
X71318095Y-56057200D01*
X71318095Y-56057200D02*
X71270476Y-55961961D01*
X71270476Y-55961961D02*
X71270476Y-55866723D01*
X71270476Y-55866723D02*
X71318095Y-55771485D01*
X71318095Y-55771485D02*
X71413333Y-55723866D01*
X71413333Y-55723866D02*
X71651428Y-55723866D01*
X71651428Y-55723866D02*
X71746666Y-55676247D01*
X72222857Y-56104819D02*
X72222857Y-55438152D01*
X72222857Y-55628628D02*
X72270476Y-55533390D01*
X72270476Y-55533390D02*
X72318095Y-55485771D01*
X72318095Y-55485771D02*
X72413333Y-55438152D01*
X72413333Y-55438152D02*
X72508571Y-55438152D01*
X73270476Y-56104819D02*
X73270476Y-55104819D01*
X73270476Y-56057200D02*
X73175238Y-56104819D01*
X73175238Y-56104819D02*
X72984762Y-56104819D01*
X72984762Y-56104819D02*
X72889524Y-56057200D01*
X72889524Y-56057200D02*
X72841905Y-56009580D01*
X72841905Y-56009580D02*
X72794286Y-55914342D01*
X72794286Y-55914342D02*
X72794286Y-55628628D01*
X72794286Y-55628628D02*
X72841905Y-55533390D01*
X72841905Y-55533390D02*
X72889524Y-55485771D01*
X72889524Y-55485771D02*
X72984762Y-55438152D01*
X72984762Y-55438152D02*
X73175238Y-55438152D01*
X73175238Y-55438152D02*
X73270476Y-55485771D01*
%TO.C,ECG_Sensor_1*%
D11*
X64830000Y-31750000D02*
X64830000Y-44510000D01*
X64830000Y-29150000D02*
X64830000Y-30480000D01*
X63500000Y-29150000D02*
X64830000Y-29150000D01*
X62170000Y-44510000D02*
X64830000Y-44510000D01*
X62170000Y-31750000D02*
X64830000Y-31750000D01*
X62170000Y-31750000D02*
X62170000Y-44510000D01*
%TO.C,ECG_Sensor_2*%
X74990000Y-31750000D02*
X74990000Y-44510000D01*
X74990000Y-29150000D02*
X74990000Y-30480000D01*
X73660000Y-29150000D02*
X74990000Y-29150000D01*
X72330000Y-44510000D02*
X74990000Y-44510000D01*
X72330000Y-31750000D02*
X74990000Y-31750000D01*
X72330000Y-31750000D02*
X72330000Y-44510000D01*
%TO.C,STM32 Board*%
X74870000Y-59690000D02*
X74870000Y-95310000D01*
X74870000Y-59690000D02*
X77530000Y-59690000D01*
X74870000Y-95310000D02*
X77530000Y-95310000D01*
X76200000Y-57090000D02*
X77530000Y-57090000D01*
X77530000Y-57090000D02*
X77530000Y-58420000D01*
X77530000Y-59690000D02*
X77530000Y-95310000D01*
%TO.C,J3*%
X62290000Y-59690000D02*
X62290000Y-95310000D01*
X62290000Y-57090000D02*
X62290000Y-58420000D01*
X60960000Y-57090000D02*
X62290000Y-57090000D01*
X59630000Y-95310000D02*
X62290000Y-95310000D01*
X59630000Y-59690000D02*
X62290000Y-59690000D01*
X59630000Y-59690000D02*
X59630000Y-95310000D01*
%TD*%
M02*
